<svg width="59" height="57" viewBox="0 0 59 57" fill="none" xmlns="http://www.w3.org/2000/svg">
<path d="M55.6536 25.586C48.9029 18.2204 42.1522 10.8579 35.4072 3.49129C34.4223 2.43277 33.4945 1.22753 32.1908 0.621762C30.9004 -0.0479341 29.3997 -0.144353 28.0122 0.178442C26.797 0.483421 25.6989 1.20866 24.8215 2.16552C17.2324 10.4461 9.64235 18.7287 2.04945 27.0061C1.17492 27.9567 0.493571 29.1472 0.21475 30.4688C-0.409507 32.8468 0.372717 35.513 1.97142 37.2276C7.32233 43.0662 12.678 48.8986 18.0279 54.7414C18.6286 55.407 19.3439 55.934 20.1318 56.2914C20.9197 56.6488 21.7645 56.8294 22.6166 56.8228C26.995 56.8511 31.3686 56.8186 35.7441 56.8385C37.712 56.9768 39.7047 56.2076 41.0988 54.6691C45.9463 49.3953 50.7805 44.1027 55.628 38.8259C56.4178 37.9518 57.2733 37.1354 57.9166 36.1209C59.0956 34.2648 59.2926 31.7652 58.6036 29.6639C58.065 27.9755 56.7708 26.8112 55.6536 25.586ZM17.7577 34.989C16.9326 36.0591 15.4824 35.7761 14.368 35.5864C13.3851 34.7205 12.4881 33.7425 11.6921 32.6687C11.2344 32.0786 11.8225 31.4666 12.187 31.0505C17.1791 25.6269 22.1541 20.1802 27.1367 14.7504C27.8048 14.0377 28.4138 13.2464 29.1656 12.6386C29.8136 12.2833 30.3123 13.0483 30.7424 13.4539C31.6607 14.5198 32.698 15.4651 33.5382 16.6054C33.9703 17.1713 33.4954 17.8263 33.1157 18.2319C27.9913 23.8117 22.8631 29.3914 17.7577 34.989ZM33.4678 47.8379C32.6713 48.8158 31.8387 49.7737 30.9061 50.5911C30.0477 50.8165 29.1332 50.7641 28.2644 50.6289C27.4308 50.1667 26.8655 49.2821 26.1823 48.5999C25.6941 48.0832 24.9338 47.3055 25.559 46.5604C26.6243 45.2759 27.7463 44.05 28.921 42.887C29.3559 42.4846 30.0078 42.6847 30.3599 43.1186C31.3618 44.1748 32.3463 45.251 33.3127 46.3466C33.6895 46.7155 33.8998 47.4145 33.4678 47.8379ZM33.169 33.2032C30.3265 36.2991 27.4736 39.3918 24.6464 42.5097C23.8537 43.5724 22.4539 43.236 21.369 43.1375C20.3185 42.4028 19.5048 41.3139 18.6608 40.3204C18.0993 39.7408 18.6265 38.981 19.0576 38.5439C21.9057 35.4512 24.7492 32.3574 27.5802 29.2479C28.095 28.7008 28.5623 28.0688 29.1875 27.6517C29.8146 27.3582 30.2733 28.0541 30.6872 28.4451C31.6341 29.5507 32.7122 30.5244 33.5753 31.7076C33.9569 32.2358 33.5154 32.828 33.169 33.2032Z" fill="#72AA11"/>
<path d="M55.6536 25.586C48.9029 18.2204 42.1522 10.8579 35.4072 3.49129C34.4223 2.43277 33.4945 1.22753 32.1908 0.621762C30.9004 -0.0479341 29.3997 -0.144353 28.0122 0.178442C26.797 0.483421 25.6989 1.20866 24.8215 2.16552C17.2324 10.4461 9.64235 18.7287 2.04945 27.0061C1.17492 27.9567 0.493571 29.1472 0.21475 30.4688C-0.409507 32.8468 0.372717 35.513 1.97142 37.2276C7.32233 43.0662 12.678 48.8986 18.0279 54.7414C18.6286 55.407 19.3439 55.934 20.1318 56.2914C20.9197 56.6488 21.7645 56.8294 22.6166 56.8228C26.995 56.8511 31.3686 56.8186 35.7441 56.8385C37.712 56.9768 39.7047 56.2076 41.0988 54.6691C45.9463 49.3953 50.7805 44.1027 55.628 38.8259C56.4178 37.9518 57.2733 37.1354 57.9166 36.1209C59.0956 34.2648 59.2926 31.7652 58.6036 29.6639C58.065 27.9755 56.7708 26.8112 55.6536 25.586ZM17.7577 34.989C16.9326 36.0591 15.4824 35.7761 14.368 35.5864C13.3851 34.7205 12.4881 33.7425 11.6921 32.6687C11.2344 32.0786 11.8225 31.4666 12.187 31.0505C17.1791 25.6269 22.1541 20.1802 27.1367 14.7504C27.8048 14.0377 28.4138 13.2464 29.1656 12.6386C29.8136 12.2833 30.3123 13.0483 30.7424 13.4539C31.6607 14.5198 32.698 15.4651 33.5382 16.6054C33.9703 17.1713 33.4954 17.8263 33.1157 18.2319C27.9913 23.8117 22.8631 29.3914 17.7577 34.989ZM33.4678 47.8379C32.6713 48.8158 31.8387 49.7737 30.9061 50.5911C30.0477 50.8165 29.1332 50.7641 28.2644 50.6289C27.4308 50.1667 26.8655 49.2821 26.1823 48.5999C25.6941 48.0832 24.9338 47.3055 25.559 46.5604C26.6243 45.2759 27.7463 44.05 28.921 42.887C29.3559 42.4846 30.0078 42.6847 30.3599 43.1186C31.3618 44.1748 32.3463 45.251 33.3127 46.3466C33.6895 46.7155 33.8998 47.4145 33.4678 47.8379ZM33.169 33.2032C30.3265 36.2991 27.4736 39.3918 24.6464 42.5097C23.8537 43.5724 22.4539 43.236 21.369 43.1375C20.3185 42.4028 19.5048 41.3139 18.6608 40.3204C18.0993 39.7408 18.6265 38.981 19.0576 38.5439C21.9057 35.4512 24.7492 32.3574 27.5802 29.2479C28.095 28.7008 28.5623 28.0688 29.1875 27.6517C29.8146 27.3582 30.2733 28.0541 30.6872 28.4451C31.6341 29.5507 32.7122 30.5244 33.5753 31.7076C33.9569 32.2358 33.5154 32.828 33.169 33.2032Z" fill="#72AA11"/>
<path d="M26.1823 53.338C26.8655 54.0203 27.4308 54.9049 28.2644 55.366C29.1332 55.5022 30.0477 55.5546 30.9061 55.3304C31.8387 54.5139 32.6713 53.555 33.4678 52.5761C33.8998 52.1527 33.6895 51.4547 33.3117 51.0869C32.8607 50.5733 32.3915 50.0818 31.9338 49.5787C31.5989 49.9277 31.2648 50.2767 30.9061 50.5911C30.0477 50.8165 29.1332 50.7641 28.2644 50.6289C27.8029 50.3731 27.4241 49.9864 27.0606 49.5766C26.5482 50.1383 26.0475 50.7128 25.559 51.2996C24.9328 52.0448 25.6941 52.8203 26.1823 53.338Z" fill="#72AA11"/>
<path d="M2.05041 31.7464C9.6433 23.4679 17.2333 15.1853 24.8224 6.9037C25.6998 5.94789 26.797 5.2216 28.0132 4.91767C29.4006 4.59278 30.9004 4.6892 32.1917 5.35994C33.4954 5.96466 34.4232 7.17095 35.4081 8.22947C42.1532 15.5951 48.9048 22.9575 55.6546 30.3231C56.7718 31.5504 58.065 32.7127 58.6055 34.4021C58.6189 34.4472 58.6274 34.4943 58.6427 34.5425C59.1307 32.9583 59.1176 31.2389 58.6055 29.6639C58.066 27.9766 56.7708 26.8112 55.6536 25.586C48.9029 18.2204 42.1522 10.8579 35.4072 3.49129C34.4223 2.43277 33.4945 1.22753 32.1908 0.621762C30.9004 -0.0479341 29.3997 -0.144353 28.0122 0.178442C26.797 0.483421 25.6989 1.20866 24.8215 2.16552C17.2324 10.4461 9.64235 18.7287 2.04945 27.0061C1.17492 27.9567 0.493571 29.1472 0.21475 30.4688C-0.136395 31.8114 -0.0279111 33.2398 0.408878 34.5436C0.758305 33.4872 1.31938 32.5311 2.05041 31.7464Z" fill="#72AA11"/>
<path d="M33.5763 36.4458C33.0805 35.7635 32.5133 35.1535 31.9395 34.5467C29.5034 37.1951 27.0654 39.8425 24.6464 42.5097C23.8537 43.5724 22.4539 43.236 21.369 43.1375C20.9361 42.8325 20.5468 42.4605 20.1738 42.0675C19.7998 42.473 19.4306 42.8776 19.0576 43.2832C18.6265 43.7192 18.0993 44.48 18.6608 45.0606C19.5048 46.051 20.3185 47.14 21.369 47.8757C22.4548 47.9763 23.8537 48.3117 24.6464 47.2479C27.4736 44.13 30.3265 41.0372 33.169 37.9413C33.5154 37.5661 33.9569 36.9729 33.5763 36.4458ZM11.6921 37.4058C12.4876 38.4801 13.3846 39.4582 14.368 40.3235C15.4824 40.5132 16.9317 40.7951 17.7577 39.7261C22.8631 34.1275 27.9913 28.5488 33.1157 22.9701C33.4954 22.5645 33.9703 21.9105 33.5382 21.3457C33.052 20.6875 32.5029 20.0943 31.9481 19.5064C27.2129 24.6606 22.4748 29.8159 17.7577 34.989C16.9326 36.0591 15.4824 35.7761 14.368 35.5864C14.0007 35.2657 13.6591 34.9083 13.3156 34.553L12.186 35.7876C11.8225 36.2037 11.2344 36.8178 11.6921 37.4058Z" fill="#72AA11"/>
</svg>
