<svg width="21" height="23" viewBox="0 0 21 23" fill="none" xmlns="http://www.w3.org/2000/svg">
<path d="M20.3919 20.6513L15.0606 15.1185C16.2601 13.5648 16.9124 11.6325 16.9093 9.64165C16.9093 4.79584 13.1242 0.867432 8.45466 0.867432C3.78534 0.867432 0 4.79584 0 9.64165C0 14.4875 3.78534 18.4159 8.45466 18.4159C10.4509 18.4159 12.2856 17.6978 13.732 16.497L19.0634 22.0299C19.1505 22.1205 19.254 22.1924 19.368 22.2415C19.482 22.2905 19.6042 22.3157 19.7275 22.3155C19.9133 22.3155 20.095 22.2584 20.2494 22.1513C20.4039 22.0441 20.5243 21.8919 20.5954 21.7138C20.6666 21.5357 20.6852 21.3396 20.649 21.1505C20.6127 20.9614 20.5233 20.7877 20.3919 20.6513ZM8.45466 16.466C4.82292 16.466 1.87881 13.4107 1.87881 9.64165C1.87881 5.87264 4.82292 2.81726 8.45466 2.81726C12.0866 2.81726 15.0305 5.87264 15.0305 9.64165C15.0305 13.4107 12.0866 16.466 8.45466 16.466Z" fill="#666363"/>
</svg>
