<svg width="15" height="14" viewBox="0 0 15 14" fill="none" xmlns="http://www.w3.org/2000/svg">
<path fill-rule="evenodd" clip-rule="evenodd" d="M7.5 0C5.46312 0 5.20781 0.00816585 4.40781 0.0419992C3.60937 0.0761242 3.06406 0.19454 2.58718 0.367498C2.09406 0.54629 1.67562 0.78575 1.25906 1.17483C0.841872 1.56392 0.585316 1.95446 0.393753 2.41471C0.208441 2.86009 0.0812539 3.36875 0.0450039 4.11396C0.00875389 4.86062 0 5.09892 0 7C0 8.90108 0.00875389 9.13938 0.0450039 9.88604C0.0815664 10.6313 0.208441 11.1402 0.393753 11.5853C0.585316 12.0455 0.84188 12.4361 1.25875 12.8249C1.67563 13.2142 2.09406 13.4537 2.58718 13.6328C3.06437 13.8055 3.60937 13.9239 4.40781 13.958C5.20781 13.9918 5.46312 14 7.5 14C9.53687 14 9.79219 13.9918 10.5922 13.958C11.3906 13.9239 11.9359 13.8055 12.4128 13.6325C12.9059 13.4537 13.3244 13.2142 13.7409 12.8252C14.1581 12.4361 14.4147 12.0455 14.6066 11.5853C14.7916 11.1399 14.9184 10.6313 14.955 9.88604C14.9913 9.13938 15 8.90108 15 7C15 5.09892 14.9913 4.86062 14.955 4.11396C14.9184 3.36875 14.7916 2.85979 14.6062 2.41471C14.4147 1.95446 14.1581 1.56392 13.7412 1.17513C13.3244 0.785752 12.9059 0.54629 12.4128 0.367498C11.9356 0.19454 11.3906 0.0758325 10.5922 0.0419992C9.79219 0.00816585 9.53687 0 7.5 0ZM7.5 1.26117C9.5025 1.26117 9.73969 1.26846 10.5306 1.302C11.2619 1.33321 11.6588 1.44725 11.9234 1.54321C12.2734 1.67008 12.5234 1.82175 12.7859 2.06675C13.0481 2.31175 13.2106 2.54508 13.3466 2.87175C13.4497 3.11821 13.5716 3.48892 13.605 4.17142C13.6409 4.90933 13.6488 5.131 13.6488 7C13.6488 8.869 13.6409 9.09037 13.605 9.82858C13.5716 10.5111 13.4494 10.8815 13.3466 11.1285C13.2106 11.4552 13.0481 11.6885 12.7856 11.9335C12.5231 12.1782 12.2731 12.3299 11.9231 12.4568C11.6591 12.553 11.2619 12.6668 10.5306 12.698C9.74 12.7315 9.5025 12.7388 7.5 12.7388C5.49719 12.7388 5.26 12.7315 4.46938 12.698C3.73813 12.6668 3.34125 12.5527 3.07656 12.4568C2.72656 12.3299 2.47656 12.1783 2.21406 11.9333C1.95187 11.6882 1.78937 11.4549 1.65343 11.1283C1.55031 10.8818 1.42843 10.5111 1.395 9.82858C1.35906 9.09067 1.35125 8.869 1.35125 7C1.35125 5.131 1.35906 4.90963 1.395 4.17142C1.42843 3.48892 1.55062 3.1185 1.65343 2.87146C1.78937 2.54479 1.95187 2.31146 2.21437 2.06646C2.47687 1.82175 2.72688 1.67008 3.07688 1.54321C3.34094 1.44696 3.73813 1.33321 4.46938 1.302C5.26 1.26846 5.4975 1.26117 7.5 1.26117ZM7.5 3.4055C5.37281 3.4055 3.64875 5.01462 3.64875 7C3.64875 8.98537 5.37281 10.5945 7.5 10.5945C9.62719 10.5945 11.3512 8.98537 11.3512 7C11.3512 5.01462 9.62719 3.4055 7.5 3.4055ZM7.5 9.33333C6.83696 9.33333 6.20107 9.0875 5.73223 8.64992C5.26339 8.21233 5 7.61884 5 7C5 6.38116 5.26339 5.78767 5.73223 5.35008C6.20107 4.9125 6.83696 4.66667 7.5 4.66667C8.16304 4.66667 8.79893 4.9125 9.26777 5.35008C9.73661 5.78767 10 6.38116 10 7C10 7.61884 9.73661 8.21233 9.26777 8.64992C8.79893 9.0875 8.16304 9.33333 7.5 9.33333ZM12.4034 3.26346C12.4034 3.48624 12.3086 3.6999 12.1398 3.85743C11.9711 4.01496 11.7421 4.10346 11.5034 4.10346C11.2647 4.10346 11.0358 4.01496 10.867 3.85743C10.6983 3.6999 10.6034 3.48624 10.6034 3.26346C10.6034 3.04067 10.6983 2.82702 10.867 2.66949C11.0358 2.51196 11.2647 2.42346 11.5034 2.42346C11.7421 2.42346 11.9711 2.51196 12.1398 2.66949C12.3086 2.82702 12.4034 3.04067 12.4034 3.26346Z" fill="#4B4B4B"/>
</svg>
