<svg width="14" height="14" viewBox="0 0 14 14" fill="none" xmlns="http://www.w3.org/2000/svg">
<path d="M14 1.67729C13.4738 1.9577 12.9174 2.14306 12.348 2.22762C12.9487 1.78678 13.3989 1.09324 13.615 0.27568C13.0505 0.688479 12.4325 0.979322 11.788 1.13557C11.3572 0.561654 10.7835 0.179627 10.1569 0.0494019C9.53026 -0.0808235 8.88618 0.0481181 8.32565 0.416004C7.76513 0.78389 7.31985 1.36991 7.05967 2.08216C6.79948 2.79441 6.7391 3.5926 6.888 4.35154C5.7466 4.28062 4.63011 3.91554 3.61106 3.28C2.59201 2.64447 1.69319 1.7527 0.973 0.662628C0.720396 1.2045 0.587663 1.81816 0.588 2.44259C0.587104 3.02248 0.702952 3.59365 0.925229 4.10524C1.14751 4.61683 1.46931 5.05296 1.862 5.3748C1.40558 5.35955 0.95892 5.2091 0.56 4.93626V4.97926C0.563421 5.79176 0.795196 6.57786 1.21612 7.20461C1.63704 7.83136 2.22128 8.26027 2.87 8.4188C2.62028 8.51216 2.36101 8.56138 2.1 8.56498C1.91932 8.56239 1.7391 8.54226 1.561 8.50479C1.74574 9.20372 2.10324 9.81452 2.58375 10.2522C3.06427 10.6899 3.6439 10.9327 4.242 10.9469C3.23204 11.9231 1.98512 12.4558 0.7 12.4603C0.466015 12.4612 0.232215 12.444 0 12.4087C1.3121 13.4494 2.84117 14.0018 4.403 13.9995C5.48078 14.0132 6.54999 13.763 7.54818 13.2635C8.54637 12.7639 9.45352 12.0251 10.2166 11.09C10.9798 10.155 11.5836 9.04255 11.9928 7.81766C12.402 6.59277 12.6084 5.27998 12.6 3.95599C12.6 3.80981 12.6 3.65503 12.6 3.50025C13.1493 2.99706 13.623 2.38019 14 1.67729Z" fill="#4B4B4B"/>
</svg>
