<svg width="17" height="13" viewBox="0 0 17 13" fill="none" xmlns="http://www.w3.org/2000/svg">
<path d="M16.9961 4.58161C17.0343 3.3787 16.7925 2.18479 16.2933 1.11075C15.9546 0.670038 15.4846 0.372629 14.9651 0.270343C12.8164 0.058163 10.6587 -0.0288028 8.50145 0.00981866C6.35203 -0.0305557 4.20216 0.0536038 2.06097 0.26194C1.63764 0.345742 1.24588 0.56183 0.933496 0.883837C0.23848 1.58137 0.161256 2.77474 0.084032 3.78323C-0.0280107 5.59645 -0.0280107 7.41581 0.084032 9.22903C0.106373 9.79665 0.184032 10.3601 0.315704 10.9098C0.408817 11.3343 0.597203 11.727 0.863994 12.0528C1.1785 12.3919 1.57939 12.6202 2.01463 12.7083C3.67952 12.9319 5.35705 13.0246 7.03419 12.9856C9.73703 13.0277 12.1078 12.9856 14.911 12.7503C15.357 12.6677 15.7691 12.439 16.0926 12.0948C16.3088 11.8594 16.4703 11.5713 16.5636 11.2544C16.8398 10.3322 16.9755 9.36695 16.9652 8.39704C16.9961 7.92641 16.9961 5.08585 16.9961 4.58161ZM6.75618 8.90128V3.69919L11.3278 6.31284C10.0459 7.08601 8.35472 7.96003 6.75618 8.90128Z" fill="#4B4B4B"/>
</svg>
