<svg width="13" height="13" viewBox="0 0 13 13" fill="none" xmlns="http://www.w3.org/2000/svg">
<path d="M10.5625 0C11.2339 0 11.8081 0.23839 12.2848 0.715169C12.7616 1.19195 13 1.76606 13 2.4375V10.5625C13 11.2339 12.7616 11.8081 12.2848 12.2848C11.8081 12.7616 11.2339 13 10.5625 13H8.97135V7.96419H10.6556L10.9095 6.00065H8.97135V4.74805C8.97135 4.43208 9.03765 4.1951 9.17025 4.03711C9.30284 3.87912 9.56098 3.80013 9.94466 3.80013L10.9772 3.79167V2.03971C10.6217 1.98893 10.1196 1.96354 9.4707 1.96354C8.70334 1.96354 8.08974 2.18924 7.62988 2.64062C7.17003 3.09201 6.9401 3.7296 6.9401 4.55339V6.00065H5.2474V7.96419H6.9401V13H2.4375C1.76606 13 1.19195 12.7616 0.715169 12.2848C0.23839 11.8081 0 11.2339 0 10.5625V2.4375C0 1.76606 0.23839 1.19195 0.715169 0.715169C1.19195 0.23839 1.76606 0 2.4375 0H10.5625Z" fill="#4B4B4B"/>
</svg>
